<svg xmlns="http://www.w3.org/2000/svg" width="1600" height="760" viewBox="0 0 1600 760" fill="none">
<defs>
  <linearGradient id="bg" x1="0" y1="0" x2="0" y2="1">
    <stop offset="0%" stop-color="#0a0710" stop-opacity="0"/>
    <stop offset="55%" stop-color="#120b08" stop-opacity="0.20"/>
    <stop offset="100%" stop-color="#1d0c05" stop-opacity="0.88"/>
  </linearGradient>
  <linearGradient id="line" x1="0" y1="1" x2="0" y2="0">
    <stop offset="0%" stop-color="#ff8f28" stop-opacity="0.98"/>
    <stop offset="100%" stop-color="#ffb14a" stop-opacity="0.38"/>
  </linearGradient>
  <radialGradient id="glowL" cx="0" cy="1" r="1">
    <stop offset="0%" stop-color="#ff9a36" stop-opacity="0.42"/>
    <stop offset="100%" stop-color="#ff9a36" stop-opacity="0"/>
  </radialGradient>
  <radialGradient id="glowR" cx="1" cy="1" r="1">
    <stop offset="0%" stop-color="#ff7b1f" stop-opacity="0.18"/>
    <stop offset="100%" stop-color="#ff7b1f" stop-opacity="0"/>
  </radialGradient>
  <filter id="soft" x="-20%" y="-20%" width="140%" height="140%">
    <feGaussianBlur stdDeviation="1.3" />
  </filter>
</defs>
<rect width="1600" height="760" fill="url(#bg)"/>
<ellipse cx="30" cy="700" rx="320" ry="180" fill="url(#glowL)"/>
<ellipse cx="1420" cy="700" rx="220" ry="130" fill="url(#glowR)"/>
<path d="M 0 410 C 70 395 130 388 200 394 C 275 402 330 425 420 434 L 420 0 L 0 0 Z" fill="#6e2e12" fill-opacity="0.10"/>
<path d="M 1050 365 C 1120 328 1190 340 1260 326 C 1330 312 1382 278 1442 276 C 1502 274 1564 302 1640 284 L 1640 0 L 1050 0 Z" fill="#6d2a12" fill-opacity="0.10"/>
<g stroke="#ff9a36" stroke-width="1.05" stroke-opacity="0.16"><path d="M -40.0 414.6-0.0j  Q 0.0 414.6-0.0j 40.0 445.5  Q 80.0 445.5 120.0 461.0  Q 160.0 461.0 200.0 452.7  Q 240.0 452.7 280.0 444.5  Q 320.0 444.5 360.0 449.2  Q 400.0 449.2 440.0 449.8  Q 480.0 449.8 520.0 434.1  Q 560.0 434.1 600.0 418.8  Q 640.0 418.8 680.0 421.8  Q 720.0 421.8 760.0 432.7  Q 800.0 432.7 840.0 434.9  Q 880.0 434.9 920.0 436.9  Q 960.0 436.9 1000.0 454.9  Q 1040.0 454.9 1080.0 477.9  Q 1120.0 477.9 1160.0 479.5  Q 1200.0 479.5 1240.0 462.1  Q 1280.0 462.1 1320.0 454.9  Q 1360.0 454.9 1400.0 468.3  Q 1440.0 468.3 1480.0 479.8  Q 1520.0 479.8 1560.0 475.2  Q 1600.0 475.2 1640.0 472.7" opacity="0.16"/><path d="M -40.0 437.3-0.0j  Q 0.0 437.3-0.0j 40.0 467.6  Q 80.0 467.6 120.0 480.5  Q 160.0 480.5 200.0 469.9  Q 240.0 469.9 280.0 461.3  Q 320.0 461.3 360.0 467.0  Q 400.0 467.0 440.0 468.1  Q 480.0 468.1 520.0 451.0  Q 560.0 451.0 600.0 433.3  Q 640.0 433.3 680.0 435.0  Q 720.0 435.0 760.0 447.3  Q 800.0 447.3 840.0 452.4  Q 880.0 452.4 920.0 456.5  Q 960.0 456.5 1000.0 474.7  Q 1040.0 474.7 1080.0 496.4  Q 1120.0 496.4 1160.0 497.7  Q 1200.0 497.7 1240.0 481.8  Q 1280.0 481.8 1320.0 476.7  Q 1360.0 476.7 1400.0 490.7  Q 1440.0 490.7 1480.0 500.4  Q 1520.0 500.4 1560.0 492.7  Q 1600.0 492.7 1640.0 488.3" opacity="0.21"/><path d="M -40.0 460.0-0.0j  Q 0.0 460.0-0.0j 40.0 488.4  Q 80.0 488.4 120.0 498.3  Q 160.0 498.3 200.0 486.2  Q 240.0 486.2 280.0 478.0  Q 320.0 478.0 360.0 484.8  Q 400.0 484.8 440.0 485.7  Q 480.0 485.7 520.0 466.7  Q 560.0 466.7 600.0 447.0  Q 640.0 447.0 680.0 448.8  Q 720.0 448.8 760.0 463.5  Q 800.0 463.5 840.0 471.5  Q 880.0 471.5 920.0 476.9  Q 960.0 476.9 1000.0 494.3  Q 1040.0 494.3 1080.0 514.9  Q 1120.0 514.9 1160.0 516.5  Q 1200.0 516.5 1240.0 502.5  Q 1280.0 502.5 1320.0 498.9  Q 1360.0 498.9 1400.0 512.2  Q 1440.0 512.2 1480.0 519.1  Q 1520.0 519.1 1560.0 508.6  Q 1600.0 508.6 1640.0 503.3" opacity="0.26"/><path d="M -40.0 484.2-0.0j  Q 0.0 484.2-0.0j 40.0 509.4  Q 80.0 509.4 120.0 516.5  Q 160.0 516.5 200.0 503.7  Q 240.0 503.7 280.0 496.7  Q 320.0 496.7 360.0 504.4  Q 400.0 504.4 440.0 504.3  Q 480.0 504.3 520.0 483.0  Q 560.0 483.0 600.0 462.2  Q 640.0 462.2 680.0 465.6  Q 720.0 465.6 760.0 483.6  Q 800.0 483.6 840.0 494.3  Q 880.0 494.3 920.0 499.9  Q 960.0 499.9 1000.0 515.8  Q 1040.0 515.8 1080.0 535.6  Q 1120.0 535.6 1160.0 538.3  Q 1200.0 538.3 1240.0 526.2  Q 1280.0 526.2 1320.0 523.2  Q 1360.0 523.2 1400.0 534.3  Q 1440.0 534.3 1480.0 537.7  Q 1520.0 537.7 1560.0 524.9  Q 1600.0 524.9 1640.0 520.0" opacity="0.31"/></g><g stroke="url(#line)" stroke-linecap="round"><path d="M -40.0 446.4-0.0j  Q 0.0 446.4-0.0j 40.0 478.0  Q 80.0 478.0 120.0 491.2  Q 160.0 491.2 200.0 480.7  Q 240.0 480.7 280.0 472.1  Q 320.0 472.1 360.0 477.4  Q 400.0 477.4 440.0 477.1  Q 480.0 477.1 520.0 457.5  Q 560.0 457.5 600.0 437.0  Q 640.0 437.0 680.0 436.7  Q 720.0 436.7 760.0 448.1  Q 800.0 448.1 840.0 453.4  Q 880.0 453.4 920.0 457.9  Q 960.0 457.9 1000.0 476.5  Q 1040.0 476.5 1080.0 499.2  Q 1120.0 499.2 1160.0 502.3  Q 1200.0 502.3 1240.0 489.0  Q 1280.0 489.0 1320.0 486.5  Q 1360.0 486.5 1400.0 502.0  Q 1440.0 502.0 1480.0 511.9  Q 1520.0 511.9 1560.0 503.5  Q 1600.0 503.5 1640.0 498.3" stroke-width="1.2" opacity="0.25"/><path d="M -40.0 465.2-0.0j  Q 0.0 465.2-0.0j 40.0 494.9  Q 80.0 494.9 120.0 505.4  Q 160.0 505.4 200.0 493.3  Q 240.0 493.3 280.0 484.6  Q 320.0 484.6 360.0 490.3  Q 400.0 490.3 440.0 489.4  Q 480.0 489.4 520.0 468.0  Q 560.0 468.0 600.0 446.2  Q 640.0 446.2 680.0 446.4  Q 720.0 446.4 760.0 460.3  Q 800.0 460.3 840.0 468.3  Q 880.0 468.3 920.0 474.2  Q 960.0 474.2 1000.0 492.6  Q 1040.0 492.6 1080.0 514.8  Q 1120.0 514.8 1160.0 518.5  Q 1200.0 518.5 1240.0 506.6  Q 1280.0 506.6 1320.0 505.0  Q 1360.0 505.0 1400.0 519.4  Q 1440.0 519.4 1480.0 526.4  Q 1520.0 526.4 1560.0 515.4  Q 1600.0 515.4 1640.0 509.2" stroke-width="1.2" opacity="0.27"/><path d="M -40.0 483.3-0.0j  Q 0.0 483.3-0.0j 40.0 510.4  Q 80.0 510.4 120.0 518.4  Q 160.0 518.4 200.0 505.2  Q 240.0 505.2 280.0 496.9  Q 320.0 496.9 360.0 502.8  Q 400.0 502.8 440.0 501.0  Q 480.0 501.0 520.0 478.1  Q 560.0 478.1 600.0 455.6  Q 640.0 455.6 680.0 457.3  Q 720.0 457.3 760.0 474.0  Q 800.0 474.0 840.0 484.5  Q 880.0 484.5 920.0 491.0  Q 960.0 491.0 1000.0 508.8  Q 1040.0 508.8 1080.0 530.6  Q 1120.0 530.6 1160.0 535.1  Q 1200.0 535.1 1240.0 524.5  Q 1280.0 524.5 1320.0 522.9  Q 1360.0 522.9 1400.0 535.4  Q 1440.0 535.4 1480.0 539.5  Q 1520.0 539.5 1560.0 526.3  Q 1600.0 526.3 1640.0 519.8" stroke-width="1.2" opacity="0.28"/><path d="M -40.0 500.3-0.0j  Q 0.0 500.3-0.0j 40.0 524.5  Q 80.0 524.5 120.0 530.3  Q 160.0 530.3 200.0 516.7  Q 240.0 516.7 280.0 509.0  Q 320.0 509.0 360.0 515.0  Q 400.0 515.0 440.0 512.1  Q 480.0 512.1 520.0 487.9  Q 560.0 487.9 600.0 465.6  Q 640.0 465.6 680.0 469.5  Q 720.0 469.5 760.0 489.2  Q 800.0 489.2 840.0 501.5  Q 880.0 501.5 920.0 508.1  Q 960.0 508.1 1000.0 525.0  Q 1040.0 525.0 1080.0 546.6  Q 1120.0 546.6 1160.0 552.1  Q 1200.0 552.1 1240.0 542.4  Q 1280.0 542.4 1320.0 540.0  Q 1360.0 540.0 1400.0 549.9  Q 1440.0 549.9 1480.0 551.1  Q 1520.0 551.1 1560.0 536.4  Q 1600.0 536.4 1640.0 530.4" stroke-width="1.2" opacity="0.30"/><path d="M -40.0 515.8-0.0j  Q 0.0 515.8-0.0j 40.0 537.1  Q 80.0 537.1 120.0 541.4  Q 160.0 541.4 200.0 528.1  Q 240.0 528.1 280.0 521.1  Q 320.0 521.1 360.0 526.9  Q 400.0 526.9 440.0 522.8  Q 480.0 522.8 520.0 497.8  Q 560.0 497.8 600.0 476.6  Q 640.0 476.6 680.0 483.2  Q 720.0 483.2 760.0 505.7  Q 800.0 505.7 840.0 519.1  Q 880.0 519.1 920.0 525.1  Q 960.0 525.1 1000.0 541.0  Q 1040.0 541.0 1080.0 562.8  Q 1120.0 562.8 1160.0 569.2  Q 1200.0 569.2 1240.0 559.8  Q 1280.0 559.8 1320.0 555.9  Q 1360.0 555.9 1400.0 562.9  Q 1440.0 562.9 1480.0 561.5  Q 1520.0 561.5 1560.0 546.3  Q 1600.0 546.3 1640.0 541.3" stroke-width="1.2" opacity="0.32"/><path d="M -40.0 529.9-0.0j  Q 0.0 529.9-0.0j 40.0 548.6  Q 80.0 548.6 120.0 552.1  Q 160.0 552.1 200.0 539.4  Q 240.0 539.4 280.0 533.1  Q 320.0 533.1 360.0 538.5  Q 400.0 538.5 440.0 533.3  Q 480.0 533.3 520.0 508.2  Q 560.0 508.2 600.0 488.8  Q 640.0 488.8 680.0 498.5  Q 720.0 498.5 760.0 523.3  Q 800.0 523.3 840.0 537.0  Q 880.0 537.0 920.0 541.9  Q 960.0 541.9 1000.0 557.0  Q 1040.0 557.0 1080.0 579.0  Q 1120.0 579.0 1160.0 586.2  Q 1200.0 586.2 1240.0 576.5  Q 1280.0 576.5 1320.0 570.4  Q 1360.0 570.4 1400.0 574.4  Q 1440.0 574.4 1480.0 571.2  Q 1520.0 571.2 1560.0 556.2  Q 1600.0 556.2 1640.0 552.7" stroke-width="1.2" opacity="0.34"/><path d="M -40.0 542.4-0.0j  Q 0.0 542.4-0.0j 40.0 559.1  Q 80.0 559.1 120.0 562.5  Q 160.0 562.5 200.0 551.0  Q 240.0 551.0 280.0 545.2  Q 320.0 545.2 360.0 549.9  Q 400.0 549.9 440.0 543.9  Q 480.0 543.9 520.0 519.5  Q 560.0 519.5 600.0 502.6  Q 640.0 502.6 680.0 515.2  Q 720.0 515.2 760.0 541.5  Q 800.0 541.5 840.0 554.7  Q 880.0 554.7 920.0 558.2  Q 960.0 558.2 1000.0 572.7  Q 1040.0 572.7 1080.0 595.3  Q 1120.0 595.3 1160.0 602.9  Q 1200.0 602.9 1240.0 592.1  Q 1280.0 592.1 1320.0 583.3  Q 1360.0 583.3 1400.0 584.6  Q 1440.0 584.6 1480.0 580.5  Q 1520.0 580.5 1560.0 566.5  Q 1600.0 566.5 1640.0 564.7" stroke-width="1.2" opacity="0.35"/><path d="M -40.0 553.5-0.0j  Q 0.0 553.5-0.0j 40.0 569.0  Q 80.0 569.0 120.0 573.1  Q 160.0 573.1 200.0 562.8  Q 240.0 562.8 280.0 557.3  Q 320.0 557.3 360.0 561.3  Q 400.0 561.3 440.0 555.0  Q 480.0 555.0 520.0 532.0  Q 560.0 532.0 600.0 517.9  Q 640.0 517.9 680.0 533.0  Q 720.0 533.0 760.0 560.0  Q 800.0 560.0 840.0 572.1  Q 880.0 572.1 920.0 574.2  Q 960.0 574.2 1000.0 588.3  Q 1040.0 588.3 1080.0 611.4  Q 1120.0 611.4 1160.0 619.0  Q 1200.0 619.0 1240.0 606.4  Q 1280.0 606.4 1320.0 594.9  Q 1360.0 594.9 1400.0 594.0  Q 1440.0 594.0 1480.0 589.8  Q 1520.0 589.8 1560.0 577.5  Q 1600.0 577.5 1640.0 577.3" stroke-width="1.2" opacity="0.37"/><path d="M -40.0 563.7-0.0j  Q 0.0 563.7-0.0j 40.0 578.8  Q 80.0 578.8 120.0 584.1  Q 160.0 584.1 200.0 574.9  Q 240.0 574.9 280.0 569.4  Q 320.0 569.4 360.0 572.8  Q 400.0 572.8 440.0 566.8  Q 480.0 566.8 520.0 545.8  Q 560.0 545.8 600.0 534.6  Q 640.0 534.6 680.0 551.6  Q 720.0 551.6 760.0 578.4  Q 800.0 578.4 840.0 588.8  Q 880.0 588.8 920.0 589.6  Q 960.0 589.6 1000.0 603.6  Q 1040.0 603.6 1080.0 627.1  Q 1120.0 627.1 1160.0 634.1  Q 1200.0 634.1 1240.0 619.4  Q 1280.0 619.4 1320.0 605.1  Q 1360.0 605.1 1400.0 603.0  Q 1440.0 603.0 1480.0 599.6  Q 1520.0 599.6 1560.0 589.3  Q 1600.0 589.3 1640.0 590.5" stroke-width="1.2" opacity="0.39"/><path d="M -40.0 573.1-0.0j  Q 0.0 573.1-0.0j 40.0 588.7  Q 80.0 588.7 120.0 595.6  Q 160.0 595.6 200.0 587.4  Q 240.0 587.4 280.0 581.7  Q 320.0 581.7 360.0 584.7  Q 400.0 584.7 440.0 579.6  Q 480.0 579.6 520.0 561.1  Q 560.0 561.1 600.0 552.5  Q 640.0 552.5 680.0 570.6  Q 720.0 570.6 760.0 596.3  Q 800.0 596.3 840.0 604.8  Q 880.0 604.8 920.0 604.5  Q 960.0 604.5 1000.0 618.7  Q 1040.0 618.7 1080.0 642.4  Q 1120.0 642.4 1160.0 648.3  Q 1200.0 648.3 1240.0 631.0  Q 1280.0 631.0 1320.0 614.5  Q 1360.0 614.5 1400.0 612.0  Q 1440.0 612.0 1480.0 610.2  Q 1520.0 610.2 1560.0 602.0  Q 1600.0 602.0 1640.0 604.3" stroke-width="1.2" opacity="0.41"/><path d="M -40.0 582.3-0.0j  Q 0.0 582.3-0.0j 40.0 599.1  Q 80.0 599.1 120.0 607.8  Q 160.0 607.8 200.0 600.3  Q 240.0 600.3 280.0 594.3  Q 320.0 594.3 360.0 597.2  Q 400.0 597.2 440.0 593.6  Q 480.0 593.6 520.0 577.7  Q 560.0 577.7 600.0 571.3  Q 640.0 571.3 680.0 589.4  Q 720.0 589.4 760.0 613.4  Q 800.0 613.4 840.0 620.0  Q 880.0 620.0 920.0 619.0  Q 960.0 619.0 1000.0 633.5  Q 1040.0 633.5 1080.0 657.0  Q 1120.0 657.0 1160.0 661.2  Q 1200.0 661.2 1240.0 641.4  Q 1280.0 641.4 1320.0 623.3  Q 1360.0 623.3 1400.0 621.4  Q 1440.0 621.4 1480.0 621.9  Q 1520.0 621.9 1560.0 615.7  Q 1600.0 615.7 1640.0 618.6" stroke-width="1.0" opacity="0.42"/><path d="M -40.0 591.7-0.0j  Q 0.0 591.7-0.0j 40.0 610.3  Q 80.0 610.3 120.0 620.6  Q 160.0 620.6 200.0 613.5  Q 240.0 613.5 280.0 607.1  Q 320.0 607.1 360.0 610.5  Q 400.0 610.5 440.0 608.9  Q 480.0 608.9 520.0 595.6  Q 560.0 595.6 600.0 590.5  Q 640.0 590.5 680.0 607.7  Q 720.0 607.7 760.0 629.5  Q 800.0 629.5 840.0 634.4  Q 880.0 634.4 920.0 633.0  Q 960.0 633.0 1000.0 647.8  Q 1040.0 647.8 1080.0 670.8  Q 1120.0 670.8 1160.0 672.9  Q 1200.0 672.9 1240.0 650.9  Q 1280.0 650.9 1320.0 632.1  Q 1360.0 632.1 1400.0 631.7  Q 1440.0 631.7 1480.0 634.7  Q 1520.0 634.7 1560.0 630.2  Q 1600.0 630.2 1640.0 633.3" stroke-width="1.0" opacity="0.44"/><path d="M -40.0 601.6-0.0j  Q 0.0 601.6-0.0j 40.0 622.4  Q 80.0 622.4 120.0 634.1  Q 160.0 634.1 200.0 627.1  Q 240.0 627.1 280.0 620.5  Q 320.0 620.5 360.0 624.8  Q 400.0 624.8 440.0 625.4  Q 480.0 625.4 520.0 614.3  Q 560.0 614.3 600.0 609.6  Q 640.0 609.6 680.0 625.1  Q 720.0 625.1 760.0 644.5  Q 800.0 644.5 840.0 648.1  Q 880.0 648.1 920.0 646.7  Q 960.0 646.7 1000.0 661.7  Q 1040.0 661.7 1080.0 683.6  Q 1120.0 683.6 1160.0 683.6  Q 1200.0 683.6 1240.0 659.9  Q 1280.0 659.9 1320.0 641.4  Q 1360.0 641.4 1400.0 643.2  Q 1440.0 643.2 1480.0 648.7  Q 1520.0 648.7 1560.0 645.4  Q 1600.0 645.4 1640.0 648.3" stroke-width="1.0" opacity="0.46"/><path d="M -40.0 612.5-0.0j  Q 0.0 612.5-0.0j 40.0 635.5  Q 80.0 635.5 120.0 648.2  Q 160.0 648.2 200.0 641.0  Q 240.0 641.0 280.0 634.4  Q 320.0 634.4 360.0 640.1  Q 400.0 640.1 440.0 643.0  Q 480.0 643.0 520.0 633.4  Q 560.0 633.4 600.0 628.1  Q 640.0 628.1 680.0 641.4  Q 720.0 641.4 760.0 658.5  Q 800.0 658.5 840.0 661.2  Q 880.0 661.2 920.0 660.1  Q 960.0 660.1 1000.0 675.0  Q 1040.0 675.0 1080.0 695.5  Q 1120.0 695.5 1160.0 693.5  Q 1200.0 693.5 1240.0 668.8  Q 1280.0 668.8 1320.0 651.6  Q 1360.0 651.6 1400.0 656.0  Q 1440.0 656.0 1480.0 663.7  Q 1520.0 663.7 1560.0 661.1  Q 1600.0 661.1 1640.0 663.6" stroke-width="1.0" opacity="0.48"/><path d="M -40.0 624.5-0.0j  Q 0.0 624.5-0.0j 40.0 649.5  Q 80.0 649.5 120.0 662.8  Q 160.0 662.8 200.0 655.3  Q 240.0 655.3 280.0 649.0  Q 320.0 649.0 360.0 656.4  Q 400.0 656.4 440.0 661.4  Q 480.0 661.4 520.0 652.5  Q 560.0 652.5 600.0 645.8  Q 640.0 645.8 680.0 656.4  Q 720.0 656.4 760.0 671.5  Q 800.0 671.5 840.0 673.8  Q 880.0 673.8 920.0 673.1  Q 960.0 673.1 1000.0 687.6  Q 1040.0 687.6 1080.0 706.6  Q 1120.0 706.6 1160.0 702.9  Q 1200.0 702.9 1240.0 678.2  Q 1280.0 678.2 1320.0 662.9  Q 1360.0 662.9 1400.0 670.2  Q 1440.0 670.2 1480.0 679.7  Q 1520.0 679.7 1560.0 677.2  Q 1600.0 677.2 1640.0 679.1" stroke-width="1.0" opacity="0.49"/><path d="M -40.0 637.7-0.0j  Q 0.0 637.7-0.0j 40.0 664.4  Q 80.0 664.4 120.0 677.8  Q 160.0 677.8 200.0 670.0  Q 240.0 670.0 280.0 664.4  Q 320.0 664.4 360.0 673.6  Q 400.0 673.6 440.0 680.2  Q 480.0 680.2 520.0 671.1  Q 560.0 671.1 600.0 662.1  Q 640.0 662.1 680.0 670.0  Q 720.0 670.0 760.0 683.7  Q 800.0 683.7 840.0 686.1  Q 880.0 686.1 920.0 685.8  Q 960.0 685.8 1000.0 699.6  Q 1040.0 699.6 1080.0 716.9  Q 1120.0 716.9 1160.0 712.1  Q 1200.0 712.1 1240.0 688.3  Q 1280.0 688.3 1320.0 675.7  Q 1360.0 675.7 1400.0 685.7  Q 1440.0 685.7 1480.0 696.3  Q 1520.0 696.3 1560.0 693.4  Q 1600.0 693.4 1640.0 694.8" stroke-width="1.0" opacity="0.51"/><path d="M -40.0 652.2-0.0j  Q 0.0 652.2-0.0j 40.0 679.9  Q 80.0 679.9 120.0 693.0  Q 160.0 693.0 200.0 685.1  Q 240.0 685.1 280.0 680.5  Q 320.0 680.5 360.0 691.6  Q 400.0 691.6 440.0 699.1  Q 480.0 699.1 520.0 688.8  Q 560.0 688.8 600.0 677.1  Q 640.0 677.1 680.0 682.5  Q 720.0 682.5 760.0 695.4  Q 800.0 695.4 840.0 698.3  Q 880.0 698.3 920.0 698.2  Q 960.0 698.2 1000.0 711.1  Q 1040.0 711.1 1080.0 726.8  Q 1120.0 726.8 1160.0 721.8  Q 1200.0 721.8 1240.0 699.7  Q 1280.0 699.7 1320.0 690.0  Q 1360.0 690.0 1400.0 702.2  Q 1440.0 702.2 1480.0 713.3  Q 1520.0 713.3 1560.0 709.6  Q 1600.0 709.6 1640.0 710.8" stroke-width="1.0" opacity="0.53"/><path d="M -40.0 667.6-0.0j  Q 0.0 667.6-0.0j 40.0 695.9  Q 80.0 695.9 120.0 708.6  Q 160.0 708.6 200.0 700.6  Q 240.0 700.6 280.0 697.4  Q 320.0 697.4 360.0 710.0  Q 400.0 710.0 440.0 717.6  Q 480.0 717.6 520.0 705.2  Q 560.0 705.2 600.0 690.6  Q 640.0 690.6 680.0 694.1  Q 720.0 694.1 760.0 706.8  Q 800.0 706.8 840.0 710.3  Q 880.0 710.3 920.0 710.3  Q 960.0 710.3 1000.0 722.0  Q 1040.0 722.0 1080.0 736.7  Q 1120.0 736.7 1160.0 732.1  Q 1200.0 732.1 1240.0 712.5  Q 1280.0 712.5 1320.0 705.8  Q 1360.0 705.8 1400.0 719.6  Q 1440.0 719.6 1480.0 730.4  Q 1520.0 730.4 1560.0 725.8  Q 1600.0 725.8 1640.0 726.8" stroke-width="1.0" opacity="0.55"/><path d="M -40.0 683.9-0.0j  Q 0.0 683.9-0.0j 40.0 712.2  Q 80.0 712.2 120.0 724.2  Q 160.0 724.2 200.0 716.6  Q 240.0 716.6 280.0 714.8  Q 320.0 714.8 360.0 728.4  Q 400.0 728.4 440.0 735.1  Q 480.0 735.1 520.0 720.2  Q 560.0 720.2 600.0 702.7  Q 640.0 702.7 680.0 704.9  Q 720.0 704.9 760.0 718.0  Q 800.0 718.0 840.0 722.4  Q 880.0 722.4 920.0 722.0  Q 960.0 722.0 1000.0 732.6  Q 1040.0 732.6 1080.0 746.8  Q 1120.0 746.8 1160.0 743.6  Q 1200.0 743.6 1240.0 726.8  Q 1280.0 726.8 1320.0 722.8  Q 1360.0 722.8 1400.0 737.4  Q 1440.0 737.4 1480.0 747.4  Q 1520.0 747.4 1560.0 741.8  Q 1600.0 741.8 1640.0 743.0" stroke-width="1.0" opacity="0.56"/></g><g stroke="#ff9a36" stroke-linecap="round" filter="url(#soft)" opacity="0.16"><path d="M -40.0 563.7-0.0j  Q 0.0 563.7-0.0j 40.0 578.8  Q 80.0 578.8 120.0 584.1  Q 160.0 584.1 200.0 574.9  Q 240.0 574.9 280.0 569.4  Q 320.0 569.4 360.0 572.8  Q 400.0 572.8 440.0 566.8  Q 480.0 566.8 520.0 545.8  Q 560.0 545.8 600.0 534.6  Q 640.0 534.6 680.0 551.6  Q 720.0 551.6 760.0 578.4  Q 800.0 578.4 840.0 588.8  Q 880.0 588.8 920.0 589.6  Q 960.0 589.6 1000.0 603.6  Q 1040.0 603.6 1080.0 627.1  Q 1120.0 627.1 1160.0 634.1  Q 1200.0 634.1 1240.0 619.4  Q 1280.0 619.4 1320.0 605.1  Q 1360.0 605.1 1400.0 603.0  Q 1440.0 603.0 1480.0 599.6  Q 1520.0 599.6 1560.0 589.3  Q 1600.0 589.3 1640.0 590.5" stroke-width="1.6"/><path d="M -40.0 591.7-0.0j  Q 0.0 591.7-0.0j 40.0 610.3  Q 80.0 610.3 120.0 620.6  Q 160.0 620.6 200.0 613.5  Q 240.0 613.5 280.0 607.1  Q 320.0 607.1 360.0 610.5  Q 400.0 610.5 440.0 608.9  Q 480.0 608.9 520.0 595.6  Q 560.0 595.6 600.0 590.5  Q 640.0 590.5 680.0 607.7  Q 720.0 607.7 760.0 629.5  Q 800.0 629.5 840.0 634.4  Q 880.0 634.4 920.0 633.0  Q 960.0 633.0 1000.0 647.8  Q 1040.0 647.8 1080.0 670.8  Q 1120.0 670.8 1160.0 672.9  Q 1200.0 672.9 1240.0 650.9  Q 1280.0 650.9 1320.0 632.1  Q 1360.0 632.1 1400.0 631.7  Q 1440.0 631.7 1480.0 634.7  Q 1520.0 634.7 1560.0 630.2  Q 1600.0 630.2 1640.0 633.3" stroke-width="1.4"/><path d="M -40.0 624.5-0.0j  Q 0.0 624.5-0.0j 40.0 649.5  Q 80.0 649.5 120.0 662.8  Q 160.0 662.8 200.0 655.3  Q 240.0 655.3 280.0 649.0  Q 320.0 649.0 360.0 656.4  Q 400.0 656.4 440.0 661.4  Q 480.0 661.4 520.0 652.5  Q 560.0 652.5 600.0 645.8  Q 640.0 645.8 680.0 656.4  Q 720.0 656.4 760.0 671.5  Q 800.0 671.5 840.0 673.8  Q 880.0 673.8 920.0 673.1  Q 960.0 673.1 1000.0 687.6  Q 1040.0 687.6 1080.0 706.6  Q 1120.0 706.6 1160.0 702.9  Q 1200.0 702.9 1240.0 678.2  Q 1280.0 678.2 1320.0 662.9  Q 1360.0 662.9 1400.0 670.2  Q 1440.0 670.2 1480.0 679.7  Q 1520.0 679.7 1560.0 677.2  Q 1600.0 677.2 1640.0 679.1" stroke-width="1.4"/><path d="M -40.0 667.6-0.0j  Q 0.0 667.6-0.0j 40.0 695.9  Q 80.0 695.9 120.0 708.6  Q 160.0 708.6 200.0 700.6  Q 240.0 700.6 280.0 697.4  Q 320.0 697.4 360.0 710.0  Q 400.0 710.0 440.0 717.6  Q 480.0 717.6 520.0 705.2  Q 560.0 705.2 600.0 690.6  Q 640.0 690.6 680.0 694.1  Q 720.0 694.1 760.0 706.8  Q 800.0 706.8 840.0 710.3  Q 880.0 710.3 920.0 710.3  Q 960.0 710.3 1000.0 722.0  Q 1040.0 722.0 1080.0 736.7  Q 1120.0 736.7 1160.0 732.1  Q 1200.0 732.1 1240.0 712.5  Q 1280.0 712.5 1320.0 705.8  Q 1360.0 705.8 1400.0 719.6  Q 1440.0 719.6 1480.0 730.4  Q 1520.0 730.4 1560.0 725.8  Q 1600.0 725.8 1640.0 726.8" stroke-width="1.4"/></g></svg>